<svg width="62" height="62" viewBox="0 0 62 62" fill="none" xmlns="http://www.w3.org/2000/svg">
<path d="M54.5599 9.44052C55.7905 9.44052 56.7862 8.44476 56.7862 7.21416C56.7862 5.98355 55.7905 4.98779 54.5599 4.98779C53.3293 4.98779 52.3335 5.98355 52.3335 7.21416C52.3335 8.44476 53.3387 9.44052 54.5599 9.44052ZM54.5599 6.57537C54.9168 6.57537 55.208 6.86658 55.208 7.22355C55.208 7.58052 54.9168 7.87173 54.5599 7.87173C54.1935 7.87173 53.9117 7.58991 53.9117 7.22355C53.9117 6.85719 54.2029 6.57537 54.5599 6.57537Z" fill="black"/>
<path d="M57.0306 1.39014H11.2633C9.52541 1.39014 8.10693 2.80862 8.10693 4.5465V9.36559H4.96935C3.23147 9.36559 1.81299 10.7841 1.81299 12.522V52.0986C1.81299 53.8365 3.23147 55.255 4.96935 55.255H25.946V59.8204C25.946 60.2526 26.303 60.6095 26.7351 60.6095H41.5588C41.9909 60.6095 42.3478 60.2526 42.3478 59.8204V55.255H50.7366C52.4745 55.255 53.893 53.8365 53.893 52.0986V47.2795H57.0306C58.7684 47.2795 60.1869 45.861 60.1869 44.1232V4.5465C60.1869 2.80862 58.7684 1.39014 57.0306 1.39014ZM9.68511 4.5465C9.68511 3.67286 10.399 2.96832 11.2633 2.96832H57.0306C57.9042 2.96832 58.6087 3.68226 58.6087 4.5465V11.4698H28.6609L25.1381 7.81559C24.8657 7.53377 24.49 7.37408 24.1048 7.37408H16.3454C15.5563 7.37408 14.9081 8.02226 14.9081 8.81135V11.4698H9.68511V4.5465ZM4.96935 53.6862C4.09572 53.6862 3.39117 52.9723 3.39117 52.108V12.522C3.39117 11.6483 4.10511 10.9438 4.96935 10.9438H8.10693V44.1326C8.10693 45.8704 9.52541 47.2889 11.2633 47.2889H28.3978C28.7078 47.8901 28.8487 48.5665 28.7924 49.2617H27.5712C26.6694 49.2617 25.946 49.9944 25.946 50.8868V53.6862H4.96935ZM33.3672 37.1623C33.5269 36.8804 33.8181 36.702 34.1469 36.702C34.6354 36.702 35.03 37.0965 35.03 37.585C35.03 37.9044 34.8609 38.1956 34.5884 38.3553C34.2878 38.5338 33.9309 38.515 33.5645 38.3083C33.5175 38.2801 33.4706 38.2426 33.4518 38.1956C33.1512 37.7165 33.2733 37.3407 33.3672 37.1623ZM33.3578 35.2741C32.7848 35.4714 32.2963 35.8565 31.9957 36.4014C31.5448 37.2092 31.6012 38.1956 32.1272 39.041C32.2963 39.3041 32.5218 39.5201 32.7942 39.6798C33.2263 39.9241 33.696 40.0556 34.1563 40.0556C34.5884 40.0556 35.0112 39.9429 35.3869 39.7268C36.1384 39.2853 36.6081 38.468 36.6081 37.5944C36.6081 36.5141 35.9036 35.6029 34.936 35.2741V31.2159L41.9157 43.8132C41.9063 43.8226 41.8969 43.8414 41.8687 43.8507C39.3981 44.4895 37.7824 46.8004 37.9139 49.2617H30.3894C30.5303 46.791 28.9051 44.4801 26.3875 43.7756L33.3578 31.2159V35.2741ZM40.7697 59.0314H27.5242L27.5712 50.8304H40.7227C40.7509 50.8304 40.7697 50.8492 40.7697 50.8774V59.0314ZM52.3148 52.0986C52.3148 52.9723 51.6009 53.6768 50.7366 53.6768H42.3478V50.8774C42.3478 49.9756 41.6151 49.2523 40.7227 49.2523H39.5015C39.4451 48.5571 39.5954 47.8807 39.896 47.2795H52.3148V52.0986ZM57.0306 45.7107H41.4272C41.6809 45.5698 41.9533 45.4477 42.2539 45.3726C42.7518 45.241 43.1557 44.8935 43.3624 44.4238C43.5597 43.9635 43.5315 43.4468 43.2872 43.0053L35.2084 28.4541C35.0018 28.0689 34.5978 27.8247 34.1563 27.8247C33.7054 27.8341 33.3015 28.0595 33.0854 28.4447L24.9972 43.0053C24.753 43.4468 24.7342 43.9729 24.9315 44.4332C25.1287 44.9029 25.5327 45.241 26.0306 45.3726C26.3312 45.4477 26.5942 45.5698 26.8572 45.7107H11.2633C10.3897 45.7107 9.68511 44.9968 9.68511 44.1326V13.048H15.0397C15.8287 13.048 16.4769 12.3998 16.4769 11.6107V8.95226H24.0391L27.5618 12.6065C27.8342 12.8883 28.21 13.048 28.5951 13.048H58.6087V44.1232C58.6087 44.9968 57.9042 45.7107 57.0306 45.7107Z" fill="black"/>
<path d="M49.1866 9.44052C50.4172 9.44052 51.4129 8.44476 51.4129 7.21416C51.4129 5.98355 50.4172 4.98779 49.1866 4.98779C47.956 4.98779 46.9602 5.98355 46.9602 7.21416C46.9602 8.44476 47.956 9.44052 49.1866 9.44052ZM49.1866 6.57537C49.5435 6.57537 49.8347 6.86658 49.8347 7.22355C49.8347 7.58052 49.5435 7.87173 49.1866 7.87173C48.8202 7.87173 48.5384 7.58991 48.5384 7.22355C48.5384 6.85719 48.8296 6.57537 49.1866 6.57537Z" fill="black"/>
<path d="M43.804 9.44052C45.0346 9.44052 46.0304 8.44476 46.0304 7.21416C46.0304 5.98355 45.0346 4.98779 43.804 4.98779C42.5734 4.98779 41.5776 5.98355 41.5776 7.21416C41.5776 8.44476 42.5734 9.44052 43.804 9.44052ZM43.804 6.57537C44.161 6.57537 44.4522 6.86658 44.4522 7.22355C44.4522 7.58052 44.161 7.87173 43.804 7.87173C43.4376 7.87173 43.1558 7.58991 43.1558 7.22355C43.1558 6.85719 43.447 6.57537 43.804 6.57537Z" fill="black"/>
<path d="M49.3558 19.9244C48.8955 20.3847 48.6043 20.9671 48.4915 21.5871H37.4536V20.3471C37.4536 19.5017 36.7679 18.8159 35.9224 18.8159H32.3621C31.5167 18.8159 30.8309 19.5017 30.8309 20.3471V21.5871H19.8024C19.6991 20.9765 19.4079 20.3941 18.9382 19.915C17.7452 18.7408 15.7067 18.7596 14.5418 19.9244C13.95 20.5162 13.6306 21.2959 13.6306 22.1226C13.6306 22.9586 13.9594 23.7477 14.5418 24.3208C15.1336 24.9314 15.9227 25.2414 16.74 25.2414C17.2567 25.2414 17.7827 25.1193 18.2806 24.8656C18.8161 24.5932 19.2576 24.1423 19.5206 23.588C19.5864 23.4471 19.6427 23.3062 19.6897 23.1653H27.3458C23.1843 25.1944 20.0467 29.0083 18.957 33.6114H17.7358C16.8903 33.6114 16.2046 34.2971 16.2046 35.1426V38.7029C16.2046 39.5483 16.8903 40.2341 17.7358 40.2341H21.2961C22.1415 40.2341 22.8273 39.5483 22.8273 38.7029V35.1426C22.8273 34.2971 22.1415 33.6114 21.2961 33.6114H20.5821C21.8973 28.6514 25.8709 24.7623 30.8591 23.5599V23.898C30.8591 24.7435 31.5449 25.4293 32.3903 25.4293H35.9506C36.7961 25.4293 37.4818 24.7435 37.4818 23.898V23.5599C42.4606 24.7623 46.4343 28.6514 47.7588 33.6114H47.1106C46.2652 33.6114 45.5794 34.2971 45.5794 35.1426V38.7029C45.5794 39.5483 46.2652 40.2341 47.1106 40.2341H50.6709C51.5164 40.2341 52.2021 39.5483 52.2021 38.7029V35.1426C52.2021 34.2971 51.5164 33.6114 50.6709 33.6114H49.3839C48.2849 29.0083 45.1473 25.185 40.9952 23.1653H48.67C48.8203 23.5974 49.0646 23.992 49.3933 24.3208C49.9852 24.9314 50.7742 25.2414 51.5915 25.2414C52.1082 25.2414 52.6343 25.1193 53.1321 24.8656C53.6676 24.5932 54.1091 24.1423 54.3721 23.588C54.9827 22.3011 54.7667 20.9014 53.7991 19.915C52.5685 18.7502 50.53 18.7596 49.3558 19.9244ZM18.0833 22.9211C17.9706 23.1465 17.7827 23.3438 17.5573 23.4565C16.74 23.8699 16.0355 23.6068 15.6503 23.2029C15.3591 22.9211 15.1994 22.5359 15.1994 22.1226C15.1994 21.7186 15.3591 21.3335 15.6503 21.0329C15.9415 20.7417 16.3267 20.582 16.74 20.582C17.1439 20.582 17.5385 20.7417 17.8203 21.0235C18.3088 21.5308 18.4027 22.2353 18.0833 22.9211ZM21.2773 38.6559L17.7639 38.7029L17.717 35.1896H21.2303L21.2773 38.6559ZM50.6427 38.6559L47.1294 38.7029L47.0824 35.1896H50.5958L50.6427 38.6559ZM32.4185 23.9074L32.3997 22.7238C32.4185 22.6393 32.4185 22.5547 32.4091 22.4608V22.4514C32.4091 22.4232 32.4279 22.4044 32.4279 22.3762C32.4279 22.3293 32.4091 22.2917 32.3997 22.2541L32.3715 20.4035H35.8849L35.913 22.2541C35.9036 22.3011 35.8849 22.3386 35.8849 22.3856C35.8849 22.4138 35.8943 22.4326 35.9036 22.4608V22.4702C35.8849 22.5923 35.8943 22.705 35.9224 22.8083L35.9412 23.8699L32.4185 23.9074ZM52.9067 22.9211C52.7939 23.1465 52.6061 23.3438 52.3806 23.4565C51.5633 23.8699 50.8588 23.6068 50.4736 23.2029C50.1824 22.9211 50.0227 22.5359 50.0227 22.1226C50.0227 21.7186 50.1824 21.3335 50.4736 21.0329C50.7649 20.7417 51.15 20.582 51.5633 20.582C51.9673 20.582 52.3618 20.7417 52.6436 21.0235C53.1321 21.5308 53.2261 22.2353 52.9067 22.9211Z" fill="black"/>
</svg>
