<svg width="57" height="57" viewBox="0 0 57 57" fill="none" xmlns="http://www.w3.org/2000/svg">
<g clip-path="url(#clip0_47_609)">
<path d="M49.2865 47.9865C54.2612 42.6849 57 35.7942 57 28.5C57 20.9723 54.0619 14.1221 49.2775 9.02252L51.2217 7.07832C51.5813 7.25114 51.9786 7.35484 52.4032 7.35484C53.9237 7.35484 55.1613 6.11721 55.1613 4.59678C55.1613 3.07634 53.9237 1.83871 52.4032 1.83871C50.8828 1.83871 49.6452 3.07634 49.6452 4.59678C49.6452 5.02144 49.7489 5.41872 49.9217 5.77829L47.9775 7.72249C42.8779 2.93808 36.0277 0 28.5 0C22.9628 0 17.6091 1.59406 12.9904 4.59678H3.67742C1.64927 4.59678 0 6.24605 0 8.27419V48.7258C0 50.754 1.64927 52.4032 3.67742 52.4032H12.9787C17.5984 55.4095 22.9637 57 28.5 57C33.973 57 39.2647 55.4387 43.8476 52.5024L47.3136 55.9684C47.9793 56.6342 48.8627 57 49.8023 57C51.7442 57 53.3226 55.4217 53.3226 53.4797C53.3226 52.5401 52.9567 51.6558 52.291 50.991L49.2865 47.9865ZM52.4032 3.67742C52.9096 3.67742 53.3226 4.09041 53.3226 4.59678C53.3226 5.10314 52.9096 5.51613 52.4032 5.51613C51.8969 5.51613 51.4839 5.10314 51.4839 4.59678C51.4839 4.09041 51.8969 3.67742 52.4032 3.67742ZM28.5 1.83871C35.5204 1.83871 41.9115 4.57119 46.6784 9.02162L44.3921 11.3079C44.0316 11.136 43.6343 11.0323 43.2097 11.0323C42.6131 11.0323 42.0641 11.2271 41.6129 11.5498L36.6638 8.08566C36.7284 7.85133 36.7742 7.60937 36.7742 7.35484C36.7742 5.8344 35.5366 4.59678 34.0161 4.59678C32.4957 4.59678 31.2581 5.8344 31.2581 7.35484C31.2581 8.87528 32.4957 10.1129 34.0161 10.1129C34.6127 10.1129 35.1617 9.91808 35.6129 9.59532L40.562 13.0595C40.4974 13.2938 40.4516 13.5358 40.4516 13.7903C40.4516 15.3108 41.6892 16.5484 43.2097 16.5484C44.7301 16.5484 45.9678 15.3108 45.9678 13.7903C45.9678 13.3657 45.8641 12.9684 45.6912 12.6088L47.9775 10.3225C52.4288 15.0886 55.1613 21.4796 55.1613 28.5C55.1613 35.3031 52.6138 41.7323 47.9856 46.6855L41.9923 40.6927C43.1886 38.7197 43.9315 36.4496 44.0824 34.0161H53.3226V32.1774H51.4839V17.4677H45.9678V32.1774H44.129V22.9839H38.6129V32.1774H36.7742V17.4677H31.2581V18.515C30.6485 18.4396 30.0353 18.3871 29.4194 18.3871V8.27419C29.4194 6.24605 27.7701 4.59678 25.7419 4.59678H16.7082C20.3573 2.79308 24.3719 1.83871 28.5 1.83871ZM44.129 13.7903C44.129 14.2967 43.716 14.7097 43.2097 14.7097C42.7033 14.7097 42.2903 14.2967 42.2903 13.7903C42.2903 13.284 42.7033 12.871 43.2097 12.871C43.716 12.871 44.129 13.284 44.129 13.7903ZM34.9355 7.35484C34.9355 7.8612 34.5225 8.27419 34.0161 8.27419C33.5098 8.27419 33.0968 7.8612 33.0968 7.35484C33.0968 6.84848 33.5098 6.43548 34.0161 6.43548C34.5225 6.43548 34.9355 6.84848 34.9355 7.35484ZM14.7564 34.0161H5.51613V24.8226H17.2675C15.6555 27.1816 14.7097 30.0308 14.7097 33.0968C14.7097 33.4074 14.7371 33.7109 14.7564 34.0161ZM29.4194 20.2258C30.0362 20.2258 30.6494 20.2855 31.2581 20.3722V22.2234C30.652 22.1224 30.0379 22.0645 29.4194 22.0645C23.3358 22.0645 18.3871 27.0132 18.3871 33.0968C18.3871 39.1803 23.3358 44.129 29.4194 44.129C35.1918 44.129 39.9349 39.6692 40.4049 34.0161H42.2436C41.7691 40.6842 36.2059 45.9678 29.4194 45.9678C22.3217 45.9678 16.5484 40.1944 16.5484 33.0968C16.5484 25.9992 22.3217 20.2258 29.4194 20.2258ZM38.5662 34.0161C38.1034 38.6551 34.1777 42.2903 29.4194 42.2903C24.3499 42.2903 20.2258 38.1662 20.2258 33.0968C20.2258 28.0273 24.3499 23.9032 29.4194 23.9032C30.0406 23.9032 30.6538 23.9867 31.2581 24.1093V32.1774H29.4194V34.0161H38.5662ZM33.0968 32.1774V19.3065H34.9355V32.1774H33.0968ZM40.4516 32.1774V24.8226H42.2903V32.1774H40.4516ZM47.8065 32.1774V19.3065H49.6452V32.1774H47.8065ZM1.83871 8.27419C1.83871 7.26012 2.66335 6.43548 3.67742 6.43548H25.7419C26.756 6.43548 27.5806 7.26012 27.5806 8.27419V11.9516H1.83871V8.27419ZM1.83871 13.7903H27.5806V18.515C24.1277 18.9487 21.0478 20.5795 18.7651 22.9839H3.67742V35.8548H14.9781C15.0975 36.4829 15.2587 37.0961 15.4553 37.6936H3.67742V39.5323H16.2126C16.8765 40.8875 17.7371 42.1265 18.7651 43.2097H1.83871V13.7903ZM3.67742 50.5645C2.66335 50.5645 1.83871 49.7399 1.83871 48.7258V45.0484H20.8767C22.8155 46.4386 25.1014 47.3679 27.5806 47.6785V48.7258C27.5806 49.7399 26.756 50.5645 25.7419 50.5645H3.67742ZM28.5 55.1613C24.3768 55.1613 20.3609 54.2051 16.7131 52.4032H25.7419C27.7701 52.4032 29.4194 50.754 29.4194 48.7258V47.8065C32.2003 47.8065 34.7941 47.0168 37.0153 45.6697L42.5121 51.1665C38.305 53.7719 33.4846 55.1613 28.5 55.1613ZM49.8023 55.1613C49.3538 55.1613 48.9319 54.9867 48.6136 54.6684L38.5523 44.6071C39.4331 43.9073 40.229 43.1105 40.9297 42.2297L50.9919 52.2919C51.3093 52.6093 51.4839 53.0312 51.4839 53.4797C51.4839 54.4076 50.7302 55.1613 49.8023 55.1613Z" fill="black"/>
<path d="M10.1128 46.8872H19.3063V48.7259H10.1128V46.8872Z" fill="black"/>
<path d="M3.67749 15.6289H5.5162V17.4676H3.67749V15.6289Z" fill="black"/>
<path d="M7.35474 15.6289H9.19345V17.4676H7.35474V15.6289Z" fill="black"/>
<path d="M11.0322 15.6289H12.8709V17.4676H11.0322V15.6289Z" fill="black"/>
<path d="M14.7097 15.6289H25.742V17.4676H14.7097V15.6289Z" fill="black"/>
<path d="M3.67749 19.3066H14.7097V21.1454H3.67749V19.3066Z" fill="black"/>
<path d="M16.5483 19.3066H18.387V21.1454H16.5483V19.3066Z" fill="black"/>
</g>
<defs>
<clipPath id="clip0_47_609">
<rect width="57" height="57" fill="white"/>
</clipPath>
</defs>
</svg>
