<svg width="60" height="60" viewBox="0 0 60 60" fill="none" xmlns="http://www.w3.org/2000/svg">
<path d="M54.375 3.75H5.625C4.63076 3.75106 3.67755 4.14649 2.97452 4.84952C2.27149 5.55255 1.87606 6.50576 1.875 7.5V42.1875C1.87606 43.1817 2.27149 44.1349 2.97452 44.838C3.67755 45.541 4.63076 45.9364 5.625 45.9375H25.3125V47.3626C21.7739 48.1249 19.6875 49.6675 19.6875 51.5625C19.6875 54.6075 25.0008 56.25 30 56.25C34.9992 56.25 40.3125 54.6075 40.3125 51.5625C40.3125 49.6675 38.2261 48.1249 34.6875 47.3626V45.9375H54.375C55.3692 45.9364 56.3224 45.541 57.0255 44.838C57.7285 44.1349 58.1239 43.1817 58.125 42.1875V7.5C58.1239 6.50576 57.7285 5.55255 57.0255 4.84952C56.3224 4.14649 55.3692 3.75106 54.375 3.75ZM5.625 5.625H54.375C54.8721 5.62557 55.3487 5.82329 55.7002 6.1748C56.0517 6.52631 56.2494 7.00289 56.25 7.5V30.9375H3.75V7.5C3.75057 7.00289 3.94829 6.52631 4.2998 6.1748C4.65131 5.82329 5.12789 5.62557 5.625 5.625ZM38.4375 51.5625C38.4375 52.7097 35.1508 54.375 30 54.375C22.51 54.2453 17.8484 51.1158 25.5569 49.2351C25.8608 50.1743 26.4545 50.9931 27.2528 51.5738C28.0511 52.1545 29.0128 52.4674 30 52.4674C30.9872 52.4674 31.9489 52.1545 32.7472 51.5738C33.5455 50.9931 34.1392 50.1743 34.4431 49.2351C37.0369 49.8256 38.4375 50.8322 38.4375 51.5625ZM32.8125 47.8125C32.8042 48.5529 32.5042 49.2602 31.9776 49.7809C31.4511 50.3015 30.7404 50.5935 30 50.5935C29.2595 50.5935 28.5489 50.3015 28.0223 49.7808C27.4958 49.2601 27.1958 48.5529 27.1875 47.8124V45.9375H32.8125V47.8125ZM54.375 44.0625H5.625C5.12789 44.0619 4.65131 43.8642 4.2998 43.5127C3.94829 43.1612 3.75057 42.6846 3.75 42.1875V32.8125H56.25V42.1875C56.2494 42.6846 56.0517 43.1612 55.7002 43.5127C55.3487 43.8642 54.8721 44.0619 54.375 44.0625Z" fill="black"/>
<path d="M52.5 38.4375H45.9375V34.6875C45.934 34.4412 45.8337 34.2061 45.6583 34.0331C45.4828 33.8602 45.2464 33.7632 45 33.7632C44.7536 33.7632 44.5172 33.8602 44.3417 34.0331C44.1663 34.2061 44.066 34.4412 44.0625 34.6875H35.625C35.6215 34.4412 35.5212 34.2061 35.3458 34.0331C35.1703 33.8602 34.9339 33.7632 34.6875 33.7632C34.4411 33.7632 34.2047 33.8602 34.0292 34.0331C33.8538 34.2061 33.7535 34.4412 33.75 34.6875C33.5037 34.691 33.2686 34.7913 33.0956 34.9667C32.9226 35.1422 32.8257 35.3787 32.8257 35.625C32.8257 35.8714 32.9226 36.1079 33.0956 36.2833C33.2686 36.4587 33.5037 36.559 33.75 36.5625V38.4375H23.4375V36.5625C23.6838 36.559 23.9189 36.4587 24.0919 36.2833C24.2649 36.1079 24.3618 35.8714 24.3618 35.625C24.3618 35.3787 24.2649 35.1422 24.0919 34.9667C23.9189 34.7913 23.6838 34.691 23.4375 34.6875C23.434 34.4412 23.3337 34.2061 23.1583 34.0331C22.9828 33.8602 22.7464 33.7632 22.5 33.7632C22.2536 33.7632 22.0172 33.8602 21.8417 34.0331C21.6663 34.2061 21.566 34.4412 21.5625 34.6875H10.3125C10.309 34.4412 10.2087 34.2061 10.0333 34.0331C9.85784 33.8602 9.62137 33.7632 9.375 33.7632C9.12863 33.7632 8.89216 33.8602 8.71673 34.0331C8.54129 34.2061 8.44098 34.4412 8.4375 34.6875H7.5C7.25136 34.6875 7.0129 34.7863 6.83709 34.9621C6.66127 35.1379 6.5625 35.3764 6.5625 35.625C6.5625 35.8737 6.66127 36.1121 6.83709 36.2879C7.0129 36.4637 7.25136 36.5625 7.5 36.5625H8.4375V42.1875C8.4375 42.4362 8.53627 42.6746 8.71209 42.8504C8.8879 43.0262 9.12636 43.125 9.375 43.125C9.62364 43.125 9.8621 43.0262 10.0379 42.8504C10.2137 42.6746 10.3125 42.4362 10.3125 42.1875V36.5625H21.5625V38.4375H16.875C16.6264 38.4375 16.3879 38.5363 16.2121 38.7121C16.0363 38.8879 15.9375 39.1264 15.9375 39.375C15.9375 39.6237 16.0363 39.8621 16.2121 40.0379C16.3879 40.2137 16.6264 40.3125 16.875 40.3125H21.5625V42.1875C21.5625 42.4362 21.6613 42.6746 21.8371 42.8504C22.0129 43.0262 22.2514 43.125 22.5 43.125C22.7486 43.125 22.9871 43.0262 23.1629 42.8504C23.3387 42.6746 23.4375 42.4362 23.4375 42.1875V40.3125H33.75V42.1875C33.75 42.4362 33.8488 42.6746 34.0246 42.8504C34.2004 43.0262 34.4389 43.125 34.6875 43.125C34.9361 43.125 35.1746 43.0262 35.3504 42.8504C35.5262 42.6746 35.625 42.4362 35.625 42.1875V40.3125H36.5625C36.8111 40.3125 37.0496 40.2137 37.2254 40.0379C37.4012 39.8621 37.5 39.6237 37.5 39.375C37.5 39.1264 37.4012 38.8879 37.2254 38.7121C37.0496 38.5363 36.8111 38.4375 36.5625 38.4375H35.625V36.5625H44.0625V38.4375H42.1875C41.9389 38.4375 41.7004 38.5363 41.5246 38.7121C41.3488 38.8879 41.25 39.1264 41.25 39.375C41.25 39.6237 41.3488 39.8621 41.5246 40.0379C41.7004 40.2137 41.9389 40.3125 42.1875 40.3125H44.0625V42.1875C44.0625 42.4362 44.1613 42.6746 44.3371 42.8504C44.5129 43.0262 44.7514 43.125 45 43.125C45.2486 43.125 45.4871 43.0262 45.6629 42.8504C45.8387 42.6746 45.9375 42.4362 45.9375 42.1875V40.3125H52.5C52.7463 40.309 52.9814 40.2087 53.1544 40.0333C53.3274 39.8579 53.4243 39.6214 53.4243 39.375C53.4243 39.1287 53.3274 38.8922 53.1544 38.7167C52.9814 38.5413 52.7463 38.441 52.5 38.4375Z" fill="black"/>
<path d="M8.4375 28.125H32.8125C33.5582 28.1242 34.2731 27.8276 34.8003 27.3003C35.3276 26.7731 35.6242 26.0582 35.625 25.3125V10.3125C35.6242 9.56683 35.3276 8.85193 34.8003 8.32466C34.2731 7.79739 33.5582 7.50081 32.8125 7.5H8.4375C7.69183 7.50081 6.97693 7.79739 6.44966 8.32466C5.92239 8.85193 5.62581 9.56683 5.625 10.3125V25.3125C5.62581 26.0582 5.92239 26.7731 6.44966 27.3003C6.97693 27.8276 7.69183 28.1242 8.4375 28.125ZM7.5 10.3125C7.50025 10.0639 7.5991 9.82562 7.77486 9.64986C7.95062 9.4741 8.18894 9.37525 8.4375 9.375H32.8125C33.0611 9.37525 33.2994 9.4741 33.4751 9.64986C33.6509 9.82562 33.7498 10.0639 33.75 10.3125V25.3125C33.7498 25.5611 33.6509 25.7994 33.4751 25.9751C33.2994 26.1509 33.0611 26.2498 32.8125 26.25H8.4375C8.18894 26.2498 7.95062 26.1509 7.77486 25.9751C7.5991 25.7994 7.50025 25.5611 7.5 25.3125V10.3125Z" fill="black"/>
<path d="M17.807 23.2021C18.0872 23.3624 18.4054 23.4442 18.7282 23.4391C19.0509 23.4339 19.3663 23.3419 19.6413 23.1728L25.8994 19.3825C26.1688 19.2185 26.3916 18.9879 26.5462 18.713C26.7007 18.438 26.7819 18.1278 26.7819 17.8124C26.7819 17.4969 26.7007 17.1868 26.5462 16.9118C26.3916 16.6368 26.1688 16.4062 25.8994 16.2422L19.6413 12.4519C19.3664 12.2826 19.051 12.1904 18.7282 12.1853C18.4054 12.1801 18.0871 12.2621 17.807 12.4226C17.5241 12.5828 17.2887 12.8151 17.125 13.096C16.9612 13.3768 16.875 13.6961 16.875 14.0212V21.6037C16.875 21.9288 16.9612 22.248 17.125 22.5288C17.2887 22.8097 17.5241 23.042 17.807 23.2021ZM24.928 17.7785L18.7495 21.5542L18.6699 14.056L24.928 17.7785Z" fill="black"/>
<path d="M40.3126 10.3125H50.6251C50.8713 10.3088 51.1063 10.2085 51.2791 10.0331C51.4519 9.85763 51.5488 9.62126 51.5488 9.375C51.5488 9.12874 51.4519 8.89237 51.2791 8.71695C51.1063 8.54153 50.8713 8.44115 50.6251 8.4375H40.3126C40.0664 8.44115 39.8315 8.54153 39.6586 8.71695C39.4858 8.89237 39.3889 9.12874 39.3889 9.375C39.3889 9.62126 39.4858 9.85763 39.6586 10.0331C39.8315 10.2085 40.0664 10.3088 40.3126 10.3125Z" fill="black"/>
<path d="M40.3126 14.0625H52.5001C52.7463 14.0588 52.9813 13.9585 53.1541 13.7831C53.3269 13.6076 53.4238 13.3713 53.4238 13.125C53.4238 12.8787 53.3269 12.6424 53.1541 12.4669C52.9813 12.2915 52.7463 12.1912 52.5001 12.1875H40.3126C40.0664 12.1912 39.8315 12.2915 39.6586 12.4669C39.4858 12.6424 39.3889 12.8787 39.3889 13.125C39.3889 13.3713 39.4858 13.6076 39.6586 13.7831C39.8315 13.9585 40.0664 14.0588 40.3126 14.0625Z" fill="black"/>
<path d="M40.3126 17.8125H48.7501C48.9965 17.809 49.2315 17.7087 49.4045 17.5333C49.5775 17.3578 49.6745 17.1214 49.6745 16.875C49.6745 16.6286 49.5775 16.3922 49.4045 16.2167C49.2315 16.0413 48.9965 15.941 48.7501 15.9375H40.3126C40.0664 15.9412 39.8315 16.0415 39.6586 16.2169C39.4858 16.3924 39.3889 16.6287 39.3889 16.875C39.3889 17.1213 39.4858 17.3576 39.6586 17.5331C39.8315 17.7085 40.0664 17.8088 40.3126 17.8125Z" fill="black"/>
<path d="M40.3125 21.5625H44.0625C44.3089 21.559 44.5439 21.4587 44.7169 21.2833C44.8899 21.1078 44.9869 20.8714 44.9869 20.625C44.9869 20.3786 44.8899 20.1422 44.7169 19.9667C44.5439 19.7913 44.3089 19.691 44.0625 19.6875H40.3125C40.0662 19.691 39.8311 19.7913 39.6581 19.9667C39.4852 20.1422 39.3882 20.3786 39.3882 20.625C39.3882 20.8714 39.4852 21.1078 39.6581 21.2833C39.8311 21.4587 40.0662 21.559 40.3125 21.5625Z" fill="black"/>
</svg>
