<svg width="62" height="62" viewBox="0 0 62 62" fill="none" xmlns="http://www.w3.org/2000/svg">
<path d="M33.9062 7.75H28.0938C27.559 7.75 27.125 7.316 27.125 6.78125C27.125 6.2465 27.559 5.8125 28.0938 5.8125H33.9062C34.441 5.8125 34.875 6.2465 34.875 6.78125C34.875 7.316 34.441 7.75 33.9062 7.75Z" fill="black"/>
<path d="M41.6562 60.0625H20.3438C17.6719 60.0625 15.5 57.8886 15.5 55.2188V22.2812C15.5 21.7465 15.934 21.3125 16.4688 21.3125C17.0035 21.3125 17.4375 21.7465 17.4375 22.2812V55.2188C17.4375 56.8211 18.7414 58.125 20.3438 58.125H41.6562C43.2586 58.125 44.5625 56.8211 44.5625 55.2188V22.2812C44.5625 21.7465 44.9965 21.3125 45.5312 21.3125C46.066 21.3125 46.5 21.7465 46.5 22.2812V55.2188C46.5 57.8886 44.3281 60.0625 41.6562 60.0625Z" fill="black"/>
<path d="M45.5312 29.0625C44.9965 29.0625 44.5625 28.6285 44.5625 28.0938V6.78125C44.5625 5.17894 43.2586 3.875 41.6562 3.875H20.3438C18.7414 3.875 17.4375 5.17894 17.4375 6.78125V28.0938C17.4375 28.6285 17.0035 29.0625 16.4688 29.0625C15.934 29.0625 15.5 28.6285 15.5 28.0938V6.78125C15.5 4.11137 17.6719 1.9375 20.3438 1.9375H41.6562C44.3281 1.9375 46.5 4.11137 46.5 6.78125V28.0938C46.5 28.6285 46.066 29.0625 45.5312 29.0625Z" fill="black"/>
<path d="M51.3438 11.7219C50.809 11.7219 50.375 11.3847 50.375 10.85V10.6562C50.375 10.1215 50.809 9.6875 51.3438 9.6875C51.8785 9.6875 52.3125 10.1215 52.3125 10.6562C52.3125 11.191 51.8785 11.7219 51.3438 11.7219Z" fill="black"/>
<path d="M51.3438 15.5969C50.809 15.5969 50.375 15.2597 50.375 14.725V14.5312C50.375 13.9965 50.809 13.5625 51.3438 13.5625C51.8785 13.5625 52.3125 13.9965 52.3125 14.5312C52.3125 15.066 51.8785 15.5969 51.3438 15.5969Z" fill="black"/>
<path d="M51.3438 19.4719C50.809 19.4719 50.375 19.1348 50.375 18.6V18.4062C50.375 17.8715 50.809 17.4375 51.3438 17.4375C51.8785 17.4375 52.3125 17.8715 52.3125 18.4062C52.3125 18.941 51.8785 19.4719 51.3438 19.4719Z" fill="black"/>
<path d="M10.6562 44.4655C10.1215 44.4655 9.6875 44.1284 9.6875 43.5937V43.3999C9.6875 42.8652 10.1215 42.4312 10.6562 42.4312C11.191 42.4312 11.625 42.8652 11.625 43.3999C11.625 43.9347 11.191 44.4655 10.6562 44.4655Z" fill="black"/>
<path d="M10.6562 48.3405C10.1215 48.3405 9.6875 48.0034 9.6875 47.4687V47.2749C9.6875 46.7402 10.1215 46.3062 10.6562 46.3062C11.191 46.3062 11.625 46.7402 11.625 47.2749C11.625 47.8097 11.191 48.3405 10.6562 48.3405Z" fill="black"/>
<path d="M10.6562 52.2155C10.1215 52.2155 9.6875 51.8784 9.6875 51.3437V51.1499C9.6875 50.6152 10.1215 50.1812 10.6562 50.1812C11.191 50.1812 11.625 50.6152 11.625 51.1499C11.625 51.6847 11.191 52.2155 10.6562 52.2155Z" fill="black"/>
<path d="M48.1294 52.3125C48.0616 52.3125 47.9919 52.3067 47.9241 52.2912C47.4009 52.1788 47.0696 51.6634 47.182 51.1403L47.8214 48.1759C47.8989 47.8117 48.1798 47.5269 48.5402 47.4397C49.4547 47.2188 50.3459 46.8468 51.1888 46.3334C51.5007 46.1396 51.9017 46.1454 52.2137 46.3431L54.1318 47.5695L55.3195 46.3721L54.0931 44.4695C53.8916 44.1576 53.8877 43.7565 54.0795 43.4407C54.5929 42.5979 54.9649 41.7066 55.1839 40.7921C55.2711 40.4318 55.5539 40.1527 55.9163 40.0714L58.125 39.5812V37.9208L55.9182 37.4306C55.5559 37.3492 55.273 37.0702 55.1858 36.7098C54.9669 35.7953 54.5929 34.9041 54.0814 34.0612C53.8877 33.7454 53.8916 33.3463 54.0931 33.0344L55.3214 31.1143L54.1357 29.9286L52.2156 31.1569C51.9037 31.3565 51.5046 31.3604 51.1907 31.1666C50.3459 30.6532 49.4547 30.2812 48.5421 30.0603C48.1798 29.9731 47.9008 29.6864 47.8233 29.3241L47.3467 27.125H46.5C45.9653 27.125 45.5312 26.691 45.5312 26.1562C45.5312 25.6215 45.9653 25.1875 46.5 25.1875H48.1275C48.5828 25.1875 48.9781 25.5072 49.073 25.9528L49.5903 28.3418C50.2994 28.5568 50.995 28.8474 51.6654 29.2098L53.7462 27.8787C54.1299 27.6346 54.6298 27.6888 54.9533 28.0104L57.2415 30.2967C57.5631 30.6183 57.6174 31.1201 57.3713 31.5038L56.0402 33.5846C56.4026 34.2569 56.6932 34.9525 56.9082 35.6636L59.3011 36.1944C59.7467 36.2932 60.0625 36.6885 60.0625 37.1419V40.3581C60.0625 40.8115 59.7467 41.2068 59.303 41.3036L56.9102 41.8345C56.6951 42.5456 56.4045 43.2411 56.0422 43.9115L57.3713 45.973C57.6193 46.3547 57.567 46.8584 57.2454 47.1801L54.9572 49.4857C54.6336 49.8092 54.1318 49.8635 53.7482 49.6194L51.6673 48.2883C50.995 48.6506 50.3014 48.9412 49.5923 49.1563L49.0749 51.5452C48.9761 52.0025 48.5731 52.3125 48.1294 52.3125Z" fill="black"/>
<path d="M49.1951 43.7449C48.8851 43.7449 48.579 43.5938 48.391 43.3167C48.0927 42.873 48.2108 42.2704 48.6565 41.9721C49.7318 41.2474 50.375 40.0423 50.375 38.75C50.375 36.6129 48.6371 34.875 46.5 34.875C46.2365 34.875 45.975 34.9021 45.725 34.9525C45.2058 35.0571 44.6885 34.7239 44.58 34.1969C44.4734 33.6718 44.8105 33.1603 45.3356 33.0537C45.7153 32.9782 46.1067 32.9375 46.5 32.9375C49.7047 32.9375 52.3125 35.5454 52.3125 38.75C52.3125 40.6894 51.3496 42.4952 49.7337 43.5802C49.569 43.6906 49.3811 43.7449 49.1951 43.7449Z" fill="black"/>
<path d="M15.5 29.0626C12.2954 29.0626 9.6875 26.4548 9.6875 23.2501C9.6875 21.303 10.6562 19.4953 12.2799 18.4103C12.7197 18.1158 13.3242 18.232 13.6226 18.6796C13.919 19.1233 13.7989 19.7258 13.3533 20.0223C12.2721 20.7469 11.625 21.952 11.625 23.2501C11.625 25.3872 13.3629 27.1251 15.5 27.1251C15.7596 27.1251 16.0154 27.1 16.2595 27.0496C16.7729 26.943 17.2941 27.2821 17.4007 27.8091C17.5072 28.3341 17.1662 28.8437 16.6412 28.9483C16.2711 29.0239 15.8914 29.0626 15.5 29.0626Z" fill="black"/>
<path d="M15.5 36.8124H13.8725C13.4172 36.8124 13.0219 36.4927 12.927 36.0471L12.4097 33.6581C11.7006 33.4431 11.005 33.1525 10.3346 32.7901L8.25375 34.1212C7.86819 34.3653 7.37025 34.313 7.04669 33.9894L4.7585 31.7032C4.43688 31.3816 4.38262 30.8798 4.62869 30.4961L5.95975 28.4153C5.59744 27.743 5.30681 27.0474 5.09175 26.3363L2.69894 25.8055C2.25331 25.7066 1.9375 25.3114 1.9375 24.858V21.6418C1.9375 21.1884 2.25331 20.7931 2.697 20.6963L5.08981 20.1654C5.30488 19.4543 5.5955 18.7588 5.95781 18.0884L4.63063 16.025C4.38263 15.6433 4.43494 15.1395 4.75656 14.8179L7.04475 12.5123C7.36444 12.1868 7.86819 12.1325 8.25375 12.3786L10.3346 13.7096C11.0069 13.3473 11.7006 13.0567 12.4097 12.8416L12.927 10.4527C13.0394 9.92764 13.5644 9.59439 14.0779 9.71064C14.601 9.82301 14.9323 10.3384 14.8199 10.8615L14.1806 13.8259C14.1031 14.1901 13.8221 14.475 13.4618 14.5621C12.5472 14.783 11.656 15.155 10.8112 15.6685C10.4974 15.8622 10.0983 15.8564 9.78631 15.6588L7.86819 14.4323L6.67856 15.6297L7.905 17.5323C8.10844 17.8443 8.11231 18.2453 7.91856 18.5611C7.40512 19.404 7.03312 20.2952 6.81419 21.2097C6.727 21.5701 6.44412 21.8491 6.08181 21.9305L3.875 22.4187V24.0791L6.08181 24.5693C6.44412 24.6507 6.727 24.9297 6.81419 25.2901C7.03312 26.2046 7.40706 27.0958 7.91856 27.9386C8.11231 28.2544 8.10844 28.6536 7.90694 28.9655L6.67856 30.8836L7.86431 32.0694L9.78438 30.841C10.0963 30.6434 10.4974 30.6395 10.8093 30.8313C11.6541 31.3448 12.5453 31.7168 13.4579 31.9376C13.8202 32.0248 14.0992 32.3116 14.1767 32.6739L14.6533 34.8749H15.5C16.0347 34.8749 16.4688 35.3089 16.4688 35.8436C16.4688 36.3784 16.0347 36.8124 15.5 36.8124Z" fill="black"/>
<path d="M30.0312 35.844C29.9537 35.844 29.8762 35.8343 29.7968 35.8149C29.2756 35.6851 28.9617 35.16 29.0915 34.6408L31.029 26.8908C31.1569 26.3696 31.6742 26.0557 32.2032 26.1855C32.7243 26.3153 33.0382 26.8404 32.9084 27.3596L30.9709 35.1096C30.8624 35.5514 30.4672 35.844 30.0312 35.844Z" fill="black"/>
<path d="M35.8437 35.8438C35.5957 35.8438 35.3477 35.7488 35.1579 35.5609C34.7801 35.1831 34.7801 34.5689 35.1579 34.1911L38.3489 31L35.1598 27.8109C34.782 27.4331 34.782 26.8189 35.1598 26.4411C35.5376 26.0633 36.1518 26.0633 36.5296 26.4411L40.4046 30.3161C40.7824 30.6939 40.7824 31.3081 40.4046 31.6859L36.5296 35.5609C36.3397 35.7488 36.0917 35.8438 35.8437 35.8438Z" fill="black"/>
<path d="M26.1562 35.8438C25.9082 35.8438 25.6602 35.7488 25.4704 35.5609L21.5954 31.6859C21.2176 31.3081 21.2176 30.6939 21.5954 30.3161L25.4704 26.4411C25.8482 26.0633 26.4624 26.0633 26.8402 26.4411C27.218 26.8189 27.218 27.4331 26.8402 27.8109L23.6511 31L26.8402 34.1891C27.218 34.5669 27.218 35.1811 26.8402 35.5589C26.6522 35.7488 26.4042 35.8438 26.1562 35.8438Z" fill="black"/>
</svg>
